<?xml version="1.0" encoding="UTF-8" standalone="no"?>
<svg
   xmlns:dc="http://purl.org/dc/elements/1.1/"
   xmlns:cc="http://creativecommons.org/ns#"
   xmlns:rdf="http://www.w3.org/1999/02/22-rdf-syntax-ns#"
   xmlns:svg="http://www.w3.org/2000/svg"
   xmlns="http://www.w3.org/2000/svg"
   xmlns:sodipodi="http://sodipodi.sourceforge.net/DTD/sodipodi-0.dtd"
   xmlns:inkscape="http://www.inkscape.org/namespaces/inkscape"
   viewBox="0 0 512 512"
   version="1.1"
   id="svg22"
   sodipodi:docname="perfilbooksettings.svg"
   inkscape:version="0.92.4 (5da689c313, 2019-01-14)">
  <metadata
     id="metadata28">
    <rdf:RDF>
      <cc:Work
         rdf:about="">
        <dc:format>image/svg+xml</dc:format>
        <dc:type
           rdf:resource="http://purl.org/dc/dcmitype/StillImage" />
        <dc:title></dc:title>
      </cc:Work>
    </rdf:RDF>
  </metadata>
  <defs
     id="defs26" />
  <sodipodi:namedview
     pagecolor="#ffffff"
     bordercolor="#666666"
     borderopacity="1"
     objecttolerance="10"
     gridtolerance="10"
     guidetolerance="10"
     inkscape:pageopacity="0"
     inkscape:pageshadow="2"
     inkscape:window-width="1366"
     inkscape:window-height="705"
     id="namedview24"
     showgrid="false"
     inkscape:zoom="1.046875"
     inkscape:cx="312.83582"
     inkscape:cy="256"
     inkscape:window-x="-8"
     inkscape:window-y="-8"
     inkscape:window-maximized="1"
     inkscape:current-layer="layer2" />
  <g
     inkscape:groupmode="layer"
     id="layer1"
     inkscape:label="Layer 1">
    <path
       id="path40-4"
       d="m 415.96935,274.801 c 1.06,-6.235 1.06,-13.518 1.06,-20.8 0,-7.282 -1.06,-13.518 -1.06,-20.8 l 44.667,-34.318 c 4.26,-3.118 5.319,-8.317 2.13,-13.518 l -42.549,-71.76401 c -2.129,-4.164 -8.507,-6.235 -12.767,-4.164 l -53.186,20.801 c -10.638,-8.318 -23.394,-15.601 -36.16,-20.801 l -7.448,-55.116987 c -1.06,-4.154 -5.319,-8.318 -10.638,-8.318 h -85.098 c -5.318,0 -9.577,4.164 -10.637,8.318 l -8.508,55.116987 c -12.767,5.2 -24.464,12.482 -36.171,20.801 l -53.186,-20.801 c -5.319,-2.071 -10.637998,0 -12.766998,4.164 L 51.102349,185.366 c -2.119,4.153 -1.061,10.399 2.129,13.518 l 45.741003,34.317 c 0,7.282 -1.06,13.518 -1.06,20.8 0,7.282 1.06,13.518 1.06,20.8 l -44.668003,34.318 c -4.26,3.118 -5.318,8.317 -2.13,13.518 l 42.549003,71.764 c 2.13,4.164 8.507998,6.235 12.766998,4.164 l 53.187,-20.801 c 10.637,8.318 23.394,15.601 36.16,20.801 l 8.508,55.117 c 1.069,5.2 5.318,8.318 10.637,8.318 h 85.098 c 5.319,0 9.578,-4.164 10.638,-8.318 l 8.518,-55.117 c 12.757,-5.2 24.464,-12.482 36.16,-20.801 l 53.187,20.801 c 5.318,2.071 10.637,0 12.767,-4.164 l 42.549,-71.765 c 2.129,-4.153 1.06,-10.399 -2.13,-13.518 z m -158.499,52 c -41.489,0 -74.46,-32.235 -74.46,-72.8 0,-40.565 32.971,-72.8 74.46,-72.8 41.489,0 74.461,32.235 74.461,72.8 0,40.565 -32.972,72.8 -74.461,72.8 z"
       inkscape:connector-curvature="0" />
  </g>
  <g
     inkscape:groupmode="layer"
     id="layer2"
     inkscape:label="Layer 2">
    <path
       id="path95-4"
       d="m 373.8554,133.36462 -114.5577,22.0694 -114.55769,-22.0694 c -14.67307,-2.34488 -25.44231,11.65541 -25.44231,25.93156 V 327.9203 c 0,14.27616 10.76924,22.48323 25.44231,25.93158 l 114.55769,22.00043 114.5577,-22.0694 c 14.67307,-3.44835 25.4423,-11.65542 25.4423,-25.93158 V 159.29618 c 0,-14.27615 -10.76923,-28.27644 -25.4423,-25.93156 z m 0,194.48671 -101.76923,22.06943 V 181.29663 L 373.8554,159.2272 Z M 246.50924,349.92076 144.74001,327.85133 V 159.29618 l 101.76923,22.06943 z"
       inkscape:connector-curvature="0"
       style="fill:#ff5555;stroke-width:0.68132263" />
  </g>
</svg>
