<?xml version="1.0" encoding="UTF-8" standalone="no"?>
<svg
   xmlns:dc="http://purl.org/dc/elements/1.1/"
   xmlns:cc="http://creativecommons.org/ns#"
   xmlns:rdf="http://www.w3.org/1999/02/22-rdf-syntax-ns#"
   xmlns:svg="http://www.w3.org/2000/svg"
   xmlns="http://www.w3.org/2000/svg"
   xmlns:sodipodi="http://sodipodi.sourceforge.net/DTD/sodipodi-0.dtd"
   xmlns:inkscape="http://www.inkscape.org/namespaces/inkscape"
   viewBox="0 0 512 512"
   version="1.1"
   id="svg22"
   sodipodi:docname="perfiliconsettings.svg"
   inkscape:version="0.92.4 (5da689c313, 2019-01-14)">
  <metadata
     id="metadata28">
    <rdf:RDF>
      <cc:Work
         rdf:about="">
        <dc:format>image/svg+xml</dc:format>
        <dc:type
           rdf:resource="http://purl.org/dc/dcmitype/StillImage" />
        <dc:title></dc:title>
      </cc:Work>
    </rdf:RDF>
  </metadata>
  <defs
     id="defs26" />
  <sodipodi:namedview
     pagecolor="#ffffff"
     bordercolor="#666666"
     borderopacity="1"
     objecttolerance="10"
     gridtolerance="10"
     guidetolerance="10"
     inkscape:pageopacity="0"
     inkscape:pageshadow="2"
     inkscape:window-width="1366"
     inkscape:window-height="705"
     id="namedview24"
     showgrid="false"
     inkscape:zoom="1.046875"
     inkscape:cx="312.83582"
     inkscape:cy="256"
     inkscape:window-x="-8"
     inkscape:window-y="-8"
     inkscape:window-maximized="1"
     inkscape:current-layer="layer2" />
  <g
     inkscape:groupmode="layer"
     id="layer1"
     inkscape:label="Layer 1">
    <path
       id="path40-4"
       d="m 415.96935,274.801 c 1.06,-6.235 1.06,-13.518 1.06,-20.8 0,-7.282 -1.06,-13.518 -1.06,-20.8 l 44.667,-34.318 c 4.26,-3.118 5.319,-8.317 2.13,-13.518 l -42.549,-71.76401 c -2.129,-4.164 -8.507,-6.235 -12.767,-4.164 l -53.186,20.801 c -10.638,-8.318 -23.394,-15.601 -36.16,-20.801 l -7.448,-55.116987 c -1.06,-4.154 -5.319,-8.318 -10.638,-8.318 h -85.098 c -5.318,0 -9.577,4.164 -10.637,8.318 l -8.508,55.116987 c -12.767,5.2 -24.464,12.482 -36.171,20.801 l -53.186,-20.801 c -5.319,-2.071 -10.637998,0 -12.766998,4.164 L 51.102349,185.366 c -2.119,4.153 -1.061,10.399 2.129,13.518 l 45.741003,34.317 c 0,7.282 -1.06,13.518 -1.06,20.8 0,7.282 1.06,13.518 1.06,20.8 l -44.668003,34.318 c -4.26,3.118 -5.318,8.317 -2.13,13.518 l 42.549003,71.764 c 2.13,4.164 8.507998,6.235 12.766998,4.164 l 53.187,-20.801 c 10.637,8.318 23.394,15.601 36.16,20.801 l 8.508,55.117 c 1.069,5.2 5.318,8.318 10.637,8.318 h 85.098 c 5.319,0 9.578,-4.164 10.638,-8.318 l 8.518,-55.117 c 12.757,-5.2 24.464,-12.482 36.16,-20.801 l 53.187,20.801 c 5.318,2.071 10.637,0 12.767,-4.164 l 42.549,-71.765 c 2.129,-4.153 1.06,-10.399 -2.13,-13.518 z m -158.499,52 c -41.489,0 -74.46,-32.235 -74.46,-72.8 0,-40.565 32.971,-72.8 74.46,-72.8 41.489,0 74.461,32.235 74.461,72.8 0,40.565 -32.972,72.8 -74.461,72.8 z"
       inkscape:connector-curvature="0" />
  </g>
  <g
     inkscape:groupmode="layer"
     id="layer2"
     inkscape:label="Layer 2">
    <path
       inkscape:connector-curvature="0"
       d="m 257.26737,102.4991 c -77.52403,0 -141.27403,58.77404 -149.13461,134.20672 -0.57692,5.19231 -0.86538,10.45674 -0.86538,15.79328 0,5.33653 0.28846,10.60096 0.86538,15.79327 7.86058,75.43269 71.61058,134.20673 149.13461,134.20673 82.86059,0 150.00001,-67.13943 150.00001,-150 0,-82.86058 -67.13942,-150 -150.00001,-150 z m 97.9327,235.16827 c -16.37019,-6.20193 -42.90865,-15.28846 -59.42308,-20.1923 -1.73077,-0.50481 -1.94711,-0.64904 -1.94711,-7.71635 0,-5.84134 2.37981,-11.75481 4.75962,-16.80289 2.59614,-5.40865 5.55288,-14.5673 6.63461,-22.78847 3.02885,-3.53364 7.21154,-10.45672 9.80769,-23.72596 2.30769,-11.68269 1.22596,-15.9375 -0.28846,-19.90384 -0.14423,-0.4327 -0.36058,-0.86538 -0.43269,-1.22596 -0.57692,-2.74039 0.21634,-16.94711 2.23557,-27.98078 1.3702,-7.57211 -0.36057,-23.65384 -10.74519,-36.99519 -6.5625,-8.4375 -19.18269,-18.75 -42.1875,-20.1923 h -12.62019 c -22.64423,1.4423 -35.19231,11.7548 -41.82692,20.1923 -10.45674,13.34135 -12.1875,29.42308 -10.81731,36.99519 2.01923,11.03367 2.8125,25.24039 2.23557,27.98078 -0.14423,0.5048 -0.28846,0.86538 -0.43269,1.29808 -1.51442,3.96635 -2.66826,8.22116 -0.28846,19.90384 2.66827,13.26924 6.77885,20.19232 9.80769,23.72596 1.08174,8.22115 4.11058,17.3077 6.63462,22.78847 1.875,3.96635 2.74038,9.375 2.74038,17.01923 0,7.13942 -0.28845,7.21154 -1.875,7.71635 -17.09135,5.04808 -42.47595,13.99039 -57.6923,20.04808 -20.76923,-23.72597 -32.01924,-53.65385 -32.01924,-85.31251 0,-34.6875 13.48558,-67.28365 38.00481,-91.80288 24.51924,-24.51924 57.11539,-38.00481 91.80288,-38.00481 34.68751,0 67.28366,13.48557 91.80289,38.00481 24.51923,24.51923 38.00481,57.11538 38.00481,91.80288 0,31.65866 -11.25,61.58654 -31.875,85.16827 z"
       id="path20-1"
       style="fill:#0000ff;stroke-width:0.72115386" />
    <path
       style="opacity:1;fill:#0000ff;stroke:none;stroke-width:0.95522386"
       d="m 241.94817,401.28964 c -44.47756,-4.68855 -84.12867,-28.64681 -109.04619,-65.88861 -23.14822,-34.59742 -30.6617,-77.07861 -20.90561,-118.20015 13.53197,-57.0367 61.51043,-102.04553 119.31202,-111.9272 12.72582,-2.17559 34.71105,-2.59155 46.95618,-0.88841 31.56441,4.39021 61.38654,19.28202 84.32135,42.10622 21.16885,21.06676 34.87762,46.35996 41.33609,76.26672 1.8691,8.65514 2.16335,12.77928 2.14681,30.08955 -0.0211,22.06301 -1.18845,29.8752 -7.10157,47.52468 -22.05027,65.81565 -87.98768,108.19406 -157.01908,100.9172 z m -47.84668,-75.48538 c 12.08358,-4.10939 22.77801,-7.95155 23.7654,-8.53815 1.61623,-0.96018 1.74761,-1.98671 1.31753,-10.29468 -0.37559,-7.2555 -1.08895,-10.75959 -3.33715,-16.39233 -1.57269,-3.94029 -3.37973,-9.52835 -4.01564,-12.41791 -0.6359,-2.88955 -3.02652,-9.12238 -5.31248,-13.85074 -6.58184,-13.61411 -8.5244,-25.77584 -6.03908,-37.80858 0.88014,-4.26123 0.85515,-7.70251 -0.11487,-15.8187 -2.12917,-17.81472 -2.22815,-22.39656 -0.6316,-29.23841 4.72879,-20.26481 19.5096,-34.64149 40.40721,-39.3024 8.63901,-1.92681 25.29288,-1.9705 34.17208,-0.0896 18.93261,4.01044 33.36305,16.41035 39.15474,33.64522 3.26211,9.70737 3.66209,15.5529 1.88017,27.47818 -1.50485,10.07095 -1.47251,15.66588 0.17755,30.7246 0.9124,8.32675 -3.5307,25.49857 -8.52946,32.9649 -1.16956,1.7469 -2.68651,5.93263 -3.37101,9.30165 -0.68449,3.36901 -2.95702,10.42387 -5.05004,15.67747 -4.36874,10.96575 -5.75686,17.13457 -4.96026,22.04344 l 0.55988,3.45016 11.09784,3.44966 c 6.10381,1.89733 19.66846,6.46197 30.14367,10.14367 13.75183,4.83333 19.46038,6.43959 20.53731,5.77879 3.02139,-1.85397 12.69744,-16.3435 17.72949,-26.54927 10.04111,-20.36493 13.28114,-34.49062 13.25559,-57.79104 -0.0193,-17.63817 -1.7854,-28.40137 -7.16108,-43.64266 -15.06505,-42.71291 -51.68609,-74.34412 -97.31758,-84.05747 -11.27825,-2.40075 -39.26022,-2.4237 -50.14925,-0.0411 -19.02978,4.16379 -36.63955,11.83287 -51.13393,22.2689 -9.58442,6.90084 -24.85529,22.53764 -31.18735,31.93469 -32.4375,48.13861 -29.99581,110.95282 6.04053,155.397 l 3.25026,4.00859 6.42569,-2.48111 c 3.53413,-1.3646 16.31226,-5.84332 28.39584,-9.9527 z"
       id="path83"
       inkscape:connector-curvature="0" />
  </g>
</svg>
